<svg xmlns="http://www.w3.org/2000/svg" viewBox="0 0 321 314"><path d="M94.11,99l-16,6.36a22.67,22.67,0,0,0-13.74,16.08L56,158.69H85.59L87.22,171h83.07L202,153.37l-22.67-47.55-48,9.55C105.36,112,94.11,99,94.11,99" fill="#574cfa" fill-rule="evenodd"/><path d="M94.11,99l-16,6.36a22.67,22.67,0,0,0-13.74,16.08L56,158.69H85.59L87.22,171h83.07L202,153.37l-22.67-47.55-48,9.55C105.36,112,94.11,99,94.11,99Z" fill="none" stroke="#574cfa"/><path d="M86,63.85S106.9,78,132.76,78A100.54,100.54,0,0,0,178,67S174.21,1,132.73,1,86,63.85,86,63.85" fill="#070e15" fill-rule="evenodd"/><path d="M86,63.85S106.9,78,132.76,78A100.54,100.54,0,0,0,178,67S174.21,1,132.73,1,86,63.85,86,63.85Z" fill="none" stroke="#070e15" stroke-linecap="round" stroke-linejoin="round" stroke-width="2"/><path d="M155.49,32H109s-8.4,49,24.16,49,22.36-49,22.36-49" fill="#f9f8f4" fill-rule="evenodd"/><path d="M155.49,32H109s-8.4,49,24.16,49S155.49,32,155.49,32Z" fill="none" stroke="#070e15" stroke-linecap="round" stroke-linejoin="round" stroke-width="2"/><path d="M130,43.5A11.5,11.5,0,1,1,118.5,32,11.5,11.5,0,0,1,130,43.5" fill="#fff" fill-rule="evenodd"/><path d="M130,43.5A11.5,11.5,0,1,1,118.5,32,11.5,11.5,0,0,1,130,43.5Z" fill="none" stroke="#070e15" stroke-linecap="round" stroke-linejoin="round" stroke-width="2"/><path d="M159,43.5A11.5,11.5,0,1,1,147.5,32,11.5,11.5,0,0,1,159,43.5" fill="#fff" fill-rule="evenodd"/><path d="M159,43.5A11.5,11.5,0,1,1,147.5,32,11.5,11.5,0,0,1,159,43.5Z" fill="none" stroke="#070e15" stroke-linecap="round" stroke-linejoin="round" stroke-width="2"/><path d="M130,44s3.26-4.5,6,0" fill="none" stroke="#070e15" stroke-linecap="round" stroke-linejoin="round" stroke-width="2"/><path d="M129.59,47A15,15,0,0,1,126,53.8,4.94,4.94,0,0,0,127.64,57,4.43,4.43,0,0,0,131,58" fill="none" stroke="#070e15" stroke-linecap="round" stroke-linejoin="round" stroke-width="2"/><path d="M134,55a2.82,2.82,0,0,1,2,1" fill="none" stroke="#070e15" stroke-linecap="round" stroke-linejoin="round" stroke-width="2"/><path d="M127.66,67.64a12.17,12.17,0,0,0,8.3,1.07c4-.86,7-5.22,7-5.22a15.28,15.28,0,0,1-5.66-.62,19.62,19.62,0,0,0-5.62-.86c-3.07.14-5.65,1.73-8.72,1.48" fill="none" stroke="#070e15" stroke-linecap="round" stroke-linejoin="round" stroke-width="2"/><path d="M109,27s1.26-18.49,20-24" fill="none" stroke="#fff" stroke-linecap="round" stroke-linejoin="round" stroke-width="2"/><path d="M155,26a27.77,27.77,0,0,0-4-9" fill="none" stroke="#fff" stroke-linecap="round" stroke-linejoin="round" stroke-width="2"/><line x1="203" y1="153" x2="171" y2="171" fill="none" stroke="#574cfa" stroke-linecap="round" stroke-linejoin="round" stroke-width="2"/><line x1="83" y1="138" x2="87" y2="171" fill="none" stroke="#070e15" stroke-linecap="round" stroke-linejoin="round" stroke-width="2"/><line x1="86" y1="159" x2="90" y2="143" fill="none" stroke="#070e15" stroke-linecap="round" stroke-linejoin="round" stroke-width="2"/><path d="M176.85,240H85.15a4.42,4.42,0,0,1-4.38-3.77L72.05,176a4.4,4.4,0,0,1,4.37-5H185.58a4.4,4.4,0,0,1,4.37,5l-8.72,60.2a4.42,4.42,0,0,1-4.38,3.77" fill="#fff" fill-rule="evenodd"/><path d="M176.85,240H85.15a4.42,4.42,0,0,1-4.38-3.77L72.05,176a4.4,4.4,0,0,1,4.37-5H185.58a4.4,4.4,0,0,1,4.37,5l-8.72,60.2A4.42,4.42,0,0,1,176.85,240Z" fill="none" stroke="#070e15" stroke-linecap="round" stroke-linejoin="round" stroke-width="2"/><path d="M94,99c11.39,10.07,26.78,15.63,42.18,16S167,110.66,180,102.59" fill="none" stroke="#574cfa" stroke-linecap="round" stroke-linejoin="round" stroke-width="2"/><path d="M156,84l8-2" fill="none" stroke="#070e15" stroke-linecap="round" stroke-linejoin="round" stroke-width="2"/><path d="M234.38,313h8.48a6.18,6.18,0,0,0,6.14-6.22,16.88,16.88,0,0,0-16.77-17H215.42A22.09,22.09,0,0,1,205,287.19l-6.71-3.59a13.47,13.47,0,0,0-10-1.11L162,289.8l18.71.59L188,298v15Z" fill="#fff" fill-rule="evenodd"/><path d="M185.28,294.16a9.63,9.63,0,0,0-7.9-4.14H160.21l-36.63-15L77,256,60,292.33c4.13,1.28,8.57,2.51,13.38,3.67l2.32.56c11,2.59,23.11,4.87,35.08,6.85C149.8,309.84,188,313,188,313V298.11Z" fill="none" stroke="#070e15" stroke-linecap="round" stroke-linejoin="round" stroke-width="2"/><path d="M76,312l35-9.34c-12-1.92-24-4.14-35-6.66Z" fill="none" stroke="#070e15" stroke-linecap="round" stroke-linejoin="round" stroke-width="2"/><path d="M206.36,277.44,189,247l-65,28.07,36.48,15h1.73l26.28-7.23a13.6,13.6,0,0,1,9.95,1.1l6.7,3.55A22,22,0,0,0,215.51,290h16.76A16.77,16.77,0,0,1,249,306.85a6.14,6.14,0,0,1-6.13,6.15h-8.45" fill="none" stroke="#070e15" stroke-linecap="round" stroke-linejoin="round" stroke-width="2"/><path d="M237.33,223,131.25,236.71,30.87,230.48s-24.58,6.23-17.63,35.68c0,0,10.69,14.61,47,25.84l17-36.29L54.45,246.4l22.76,9.31,1.24-2.65-1.24,2.65,46.48,19,65.22-28.06-.69-1.2.69,1.2,19.56-8.42-19.56,8.42,17.37,30.42c24.31-8.17,40.49-15.62,40.49-15.62,13.43-23.94-9.44-38.47-9.44-38.47" fill="#070e15" fill-rule="evenodd"/><path d="M237.33,223,131.25,236.71,30.87,230.48s-24.58,6.23-17.63,35.68c0,0,10.69,14.61,47,25.84l17-36.29L54.45,246.4l22.76,9.31,1.24-2.65-1.24,2.65,46.48,19,65.22-28.06-.69-1.2.69,1.2,19.56-8.42-19.56,8.42,17.37,30.42c24.31-8.17,40.49-15.62,40.49-15.62C260.2,237.53,237.33,223,237.33,223Z" fill="none" stroke="#070e15" stroke-linecap="round" stroke-linejoin="round" stroke-width="2"/><line x1="54" y1="246" x2="77" y2="255" fill="none" stroke="#fff" stroke-linecap="round" stroke-linejoin="round" stroke-width="2"/><line x1="189" y1="246" x2="209" y2="238" fill="none" stroke="#fff" stroke-linecap="round" stroke-linejoin="round" stroke-width="2"/><path d="M196.39,294h-4.32a4.08,4.08,0,0,0-4.07,4.09v10.82a4.08,4.08,0,0,0,4.07,4.09H209" fill="#fff" fill-rule="evenodd"/><path d="M196.39,294h-4.32a4.08,4.08,0,0,0-4.07,4.09v10.82a4.08,4.08,0,0,0,4.07,4.09H209" fill="none" stroke="#070e15" stroke-linecap="round" stroke-linejoin="round" stroke-width="2"/><path d="M34.85,287c-15.36,0-17.7,10.73-17.85,16.54A8.29,8.29,0,0,0,25.27,312h46.8A3.93,3.93,0,0,0,76,308.06v-8.51a3.93,3.93,0,0,0-3.93-3.94H66.75" fill="#fff" fill-rule="evenodd"/><path d="M34.85,287c-15.36,0-17.7,10.73-17.85,16.54A8.29,8.29,0,0,0,25.27,312h46.8A3.93,3.93,0,0,0,76,308.06v-8.51a3.93,3.93,0,0,0-3.93-3.94H66.75" fill="none" stroke="#070e15" stroke-linecap="round" stroke-linejoin="round" stroke-width="2"/><line x1="1" y1="312.5" x2="264" y2="312.5" fill="none"/><line x1="1" y1="312.5" x2="264" y2="312.5" fill="none" stroke="#070e15" stroke-linecap="round" stroke-linejoin="round" stroke-width="2"/><polyline points="32 179 62 179 56.96 229 37.04 229" fill="#fff" fill-rule="evenodd"/><polyline points="32 179 62 179 56.96 229 37.04 229" fill="none" stroke="#070e15" stroke-linecap="round" stroke-linejoin="round" stroke-width="2"/><polygon points="33 191 35.48 216 57.52 216 60 191 33 191" fill="#574cfa" fill-rule="evenodd"/><polygon points="33 191 35.48 216 57.52 216 60 191 33 191" fill="none" stroke="#574cfa" stroke-linecap="round" stroke-linejoin="round" stroke-width="2"/><path d="M34.39,228A18.36,18.36,0,0,1,29,214.84V198.36A4.38,4.38,0,0,1,33.39,194H53.94a4.71,4.71,0,0,1-3.89,4.62l-15.66,2.82v1.92L54,202.1l-1.28,6a5.44,5.44,0,0,1-3.38,4L39.22,216a5.6,5.6,0,0,0-3.59,5.23v.33" fill="#f9f8f4" fill-rule="evenodd"/><path d="M34.39,228A18.36,18.36,0,0,1,29,214.84V198.36A4.38,4.38,0,0,1,33.39,194H53.94a4.71,4.71,0,0,1-3.89,4.62l-15.66,2.82v1.92L54,202.1l-1.28,6a5.44,5.44,0,0,1-3.38,4L39.22,216a5.6,5.6,0,0,0-3.59,5.23v.33" fill="none" stroke="#f9f8f4" stroke-linecap="round" stroke-linejoin="round" stroke-width="2"/><path d="M53,202l-1.25,5.87a5.37,5.37,0,0,1-3.31,3.87l-9.91,3.83A5.49,5.49,0,0,0,35,220.68V221" fill="none" stroke="#070e15" stroke-linecap="round" stroke-linejoin="round" stroke-width="2"/><path d="M35,210l13-2.81A6.56,6.56,0,0,0,53,202" fill="none" stroke="#070e15" stroke-linecap="round" stroke-linejoin="round" stroke-width="2"/><path d="M53,194a4.47,4.47,0,0,1-3.77,4.34L34,201" fill="none" stroke="#070e15" stroke-linecap="round" stroke-linejoin="round" stroke-width="2"/><path d="M34,228a19,19,0,0,1-5-13.16V198.36A4.23,4.23,0,0,1,33.08,194" fill="none" stroke="#070e15" stroke-linecap="round" stroke-linejoin="round" stroke-width="2"/><path d="M47,172c-7.26-1.23-14.54-3.58-20.23-8.31s-9.58-12.16-8.67-19.57S25.57,130,32.92,130.4c3.58.19,7.63,3.41,6.3,6.79s-6.91,2.51-8.14-.83,1.08-7.17,4.19-8.83,6.8-1.71,10.32-1.71c-9,3.54-19.85-.71-25.24-8.77S14.78,98,18.7,89.13,30.2,73.35,38.79,69" fill="none" stroke="#070e15" stroke-linecap="round" stroke-linejoin="round" stroke-width="2"/><path d="M117,45.85a6,6,0,0,1,6,.07" fill="none" stroke="#070e15" stroke-linecap="round" stroke-linejoin="round" stroke-width="2"/><path d="M149,45.91a6.43,6.43,0,0,0-6-.16" fill="none" stroke="#070e15" stroke-linecap="round" stroke-linejoin="round" stroke-width="2"/><path d="M200.28,218a19.61,19.61,0,0,0,9.48-20l-12-76.78a22.12,22.12,0,0,0-10.88-15.83A223.33,223.33,0,0,0,152,90" fill="none" stroke="#070e15" stroke-linecap="round" stroke-linejoin="round" stroke-width="2"/><path d="M94,99l-14.45,5.7A25.53,25.53,0,0,0,64,122.91L56,159" fill="none" stroke="#574cfa" stroke-linecap="round" stroke-linejoin="round" stroke-width="2"/><line x1="56" y1="158" x2="53" y2="172" fill="none" stroke="#070e15" stroke-linecap="round" stroke-linejoin="round" stroke-width="2"/><polyline points="117 77 115.77 90.42 94 99" fill="none" stroke="#070e15" stroke-linecap="round" stroke-linejoin="round" stroke-width="2"/><path d="M320,144.17a2.61,2.61,0,0,1-2.62,2.61h-170L132,159V101.61A2.61,2.61,0,0,1,134.62,99H317.38a2.61,2.61,0,0,1,2.62,2.61Z" fill="#fff" fill-rule="evenodd"/><path d="M320,144.17a2.61,2.61,0,0,1-2.62,2.61h-170L132,159V101.61A2.61,2.61,0,0,1,134.62,99H317.38a2.61,2.61,0,0,1,2.62,2.61Z" fill="none" stroke="#070e15" stroke-linecap="round" stroke-linejoin="round" stroke-width="2"/><path d="M281.54,130.7v-2.54a4.13,4.13,0,0,0,2.6-1,3,3,0,0,0,1-2.26,3.26,3.26,0,0,0-.76-2.28,4.36,4.36,0,0,0-1.72-1.12l-2.33-.93c-.61-.24-.91-.56-.91-1a.79.79,0,0,1,.29-.64,1.26,1.26,0,0,1,.84-.26,2.09,2.09,0,0,1,1.79,1.27l2.29-1.12a4.14,4.14,0,0,0-3-2.45V114h-1.2v2.35a3.73,3.73,0,0,0-2.52,1,3.23,3.23,0,0,0,1.44,5.42l2.15.81c.74.29,1.12.69,1.12,1.2a.92.92,0,0,1-.36.76,1.71,1.71,0,0,1-1,.27,2.25,2.25,0,0,1-1.43-.41,3,3,0,0,1-.86-1.32l-2.39,1a4.52,4.52,0,0,0,1.37,2.12,4.37,4.37,0,0,0,2.51,1v2.54Zm9.55,0v-2.54a4.13,4.13,0,0,0,2.61-1,3,3,0,0,0,1-2.26,3.26,3.26,0,0,0-.77-2.28,4.39,4.39,0,0,0-1.71-1.12l-2.34-.93c-.61-.24-.91-.56-.91-1a.82.82,0,0,1,.29-.64,1.26,1.26,0,0,1,.84-.26,2.1,2.1,0,0,1,1.8,1.27l2.28-1.12a4.14,4.14,0,0,0-3.05-2.45V114h-1.2v2.35a3.7,3.7,0,0,0-2.51,1,3.23,3.23,0,0,0,1.44,5.42l2.14.81c.75.29,1.12.69,1.12,1.2a.92.92,0,0,1-.36.76,1.69,1.69,0,0,1-1,.27,2.27,2.27,0,0,1-1.43-.41,3,3,0,0,1-.86-1.32l-2.38,1a4.43,4.43,0,0,0,1.36,2.12,4.37,4.37,0,0,0,2.51,1v2.54Z" fill="#574cfa"/><path d="M296.81,128l1.84-5h-.73l-1.84,5Zm2.92,0v-2a2.39,2.39,0,0,1,0-.51.9.9,0,0,1,.25-.39.68.68,0,0,1,.43-.15.53.53,0,0,1,.57.48,2.17,2.17,0,0,1,0,.43V128h.84v-2a2.3,2.3,0,0,1,.05-.51.75.75,0,0,1,.25-.39.64.64,0,0,1,.42-.15.53.53,0,0,1,.57.48,2.17,2.17,0,0,1,0,.43V128h.84v-2.38A3.42,3.42,0,0,0,304,125a1.11,1.11,0,0,0-.37-.59,1.19,1.19,0,0,0-1.38,0,1.46,1.46,0,0,0-.46.53,1.24,1.24,0,0,0-.38-.54,1.07,1.07,0,0,0-.65-.2,1.18,1.18,0,0,0-1,.67v-.59h-.84V128Zm7.24.08a2,2,0,0,0,1.41-3.39,2.06,2.06,0,0,0-2.82,0,2,2,0,0,0,1.41,3.39Zm0-.78a1,1,0,0,1-.8-.34,1.17,1.17,0,0,1-.32-.85,1.15,1.15,0,0,1,.32-.85,1,1,0,0,1,.8-.35,1.07,1.07,0,0,1,.81.35,1.2,1.2,0,0,1,.32.85,1.17,1.17,0,0,1-.33.84A1,1,0,0,1,307,127.3Z" fill="#070e15"/><path d="M181.93,128l.6-1.62H186l.6,1.62h2l-3.32-8.64h-1.84L180.07,128Zm3.45-3.28H183.2l1.08-3Zm6.09,3.42a2,2,0,0,0,1.77-1.2V128H195v-6.49h-1.75V125a2.89,2.89,0,0,1-.08.73,1,1,0,0,1-1.08.79.82.82,0,0,1-.92-.68,4.08,4.08,0,0,1,0-.71v-3.62h-1.75v3.69a6.18,6.18,0,0,0,.12,1.46,2.09,2.09,0,0,0,.68,1.07A2,2,0,0,0,191.47,128.14Zm7.31-.14v-4.91h1.16v-1.58h-1.16V120l-1.75.24v1.32h-1.17v1.58H197V128Zm5.12.14a3.33,3.33,0,0,0,2.44-1,3.42,3.42,0,0,0,0-4.82,3.58,3.58,0,0,0-4.9,0,3.47,3.47,0,0,0,0,4.85A3.39,3.39,0,0,0,203.9,128.14Zm0-1.63a1.57,1.57,0,0,1-1.19-.5,1.74,1.74,0,0,1-.48-1.25,1.77,1.77,0,0,1,.48-1.26,1.54,1.54,0,0,1,1.19-.5,1.57,1.57,0,0,1,1.2.5,1.85,1.85,0,0,1,0,2.49A1.58,1.58,0,0,1,203.89,126.51Zm9.67,1.49v-3.1h1.37a3.45,3.45,0,0,0,2.38-.75,2.55,2.55,0,0,0,.85-2,2.6,2.6,0,0,0-.82-2,3.14,3.14,0,0,0-2.25-.76h-3.36V128Zm1.38-4.79h-1.38v-2.16H215a1.17,1.17,0,0,1,.84.3,1,1,0,0,1,.31.79,1,1,0,0,1-.32.78A1.33,1.33,0,0,1,214.94,123.21Zm7.09,4.93a3.33,3.33,0,0,0,2.44-1,3.42,3.42,0,0,0,0-4.82,3.58,3.58,0,0,0-4.9,0,3.47,3.47,0,0,0,0,4.85A3.39,3.39,0,0,0,222,128.14Zm0-1.63a1.57,1.57,0,0,1-1.19-.5,1.74,1.74,0,0,1-.48-1.25,1.77,1.77,0,0,1,.48-1.26A1.54,1.54,0,0,1,222,123a1.57,1.57,0,0,1,1.2.5,1.85,1.85,0,0,1,0,2.49A1.58,1.58,0,0,1,222,126.51Zm6.36,1.49v-8.64h-1.75V128Zm2.41-6.89a1.18,1.18,0,0,0,.77-.24.88.88,0,0,0,.29-.69.85.85,0,0,0-.29-.69,1.3,1.3,0,0,0-1.53,0,.85.85,0,0,0-.29.69.88.88,0,0,0,.29.69A1.17,1.17,0,0,0,230.79,121.11Zm.88,6.89v-6.49h-1.75V128Zm4.58.14a3.23,3.23,0,0,0,2-.55,2.92,2.92,0,0,0,1.06-1.53l-1.6-.59a1.45,1.45,0,0,1-1.4,1,1.58,1.58,0,0,1-1.2-.5,1.77,1.77,0,0,1-.46-1.25,1.8,1.8,0,0,1,.46-1.27,1.57,1.57,0,0,1,1.2-.49,1.6,1.6,0,0,1,1.4.93l1.48-.81a3,3,0,0,0-2.9-1.76,3.34,3.34,0,0,0-2.41,1,3.49,3.49,0,0,0,0,4.85A3.33,3.33,0,0,0,236.25,128.14Zm6.29,1.89,3.58-8.52h-2l-1.47,3.91-1.51-3.91h-2l2.51,6.14-1.1,2.38Z" fill="#070e15"/><path d="M155.5,136l-3.8-2.88A14.45,14.45,0,0,1,146,121.6v-4.8a11.42,11.42,0,0,0,8.11-3.39L155.5,112l1.39,1.41A11.42,11.42,0,0,0,165,116.8v4.8a14.45,14.45,0,0,1-5.7,11.52Z" fill="#574cfa" fill-rule="evenodd"/><path d="M155.5,136l-3.8-2.88A14.45,14.45,0,0,1,146,121.6v-4.8a11.42,11.42,0,0,0,8.11-3.39L155.5,112l1.39,1.41A11.42,11.42,0,0,0,165,116.8v4.8a14.45,14.45,0,0,1-5.7,11.52Z" fill="none" stroke="#574cfa" stroke-linecap="round" stroke-linejoin="round" stroke-width="2"/><path d="M121,204.85a.15.15,0,0,0,.28.07c2.23-4.5,6.66-8.52,10.64-9.73a.1.1,0,0,0,0-.19l-10.38,0c-.23,0-.52.19-.52.4Z" fill="#574cfa" fill-rule="evenodd"/><path d="M121,204.85a.15.15,0,0,0,.28.07c2.23-4.5,6.66-8.52,10.64-9.73a.1.1,0,0,0,0-.19l-10.38,0c-.23,0-.52.19-.52.4Z" fill="none" stroke="#574cfa" stroke-linecap="round" stroke-linejoin="round" stroke-width="0.75"/><path d="M121.14,218h8.54a.52.52,0,0,0,.45-.26L143,195.52a.35.35,0,0,0-.31-.52h-8.18a.43.43,0,0,0-.36.2L121,217.8a.13.13,0,0,0,.12.2" fill="#574cfa" fill-rule="evenodd"/><path d="M121.14,218h8.54a.52.52,0,0,0,.45-.26L143,195.52a.35.35,0,0,0-.31-.52h-8.18a.43.43,0,0,0-.36.2L121,217.8a.13.13,0,0,0,.12.2" fill="none" stroke="#574cfa" stroke-linecap="round" stroke-linejoin="round" stroke-width="0.75"/><path d="M143,208.15a.15.15,0,0,0-.28-.07c-2.23,4.5-6.66,8.52-10.64,9.73a.1.1,0,0,0,0,.19l10.38,0c.23,0,.52-.18.52-.39Z" fill="#574cfa" fill-rule="evenodd"/><path d="M143,208.15a.15.15,0,0,0-.28-.07c-2.23,4.5-6.66,8.52-10.64,9.73a.1.1,0,0,0,0,.19l10.38,0c.23,0,.52-.18.52-.39Z" fill="none" stroke="#574cfa" stroke-linecap="round" stroke-linejoin="round" stroke-width="0.75"/></svg>