<svg xmlns="http://www.w3.org/2000/svg" viewBox="0 0 302.92 302.55"><path d="M266.56,181.32H48.16a3.33,3.33,0,0,1-3.3-3.3v-53.5a3.33,3.33,0,0,1,3.3-3.3h218.4a3.33,3.33,0,0,1,3.3,3.3v53.6a3.31,3.31,0,0,1-3.3,3.2" fill="#fff" fill-rule="evenodd"/><path d="M266.56,181.32H48.16a3.33,3.33,0,0,1-3.3-3.3v-53.5a3.33,3.33,0,0,1,3.3-3.3h218.4a3.33,3.33,0,0,1,3.3,3.3v53.6A3.31,3.31,0,0,1,266.56,181.32Z" fill="none" stroke="#070e15" stroke-linecap="round" stroke-linejoin="round" stroke-width="2"/><path d="M220.1,162.4v-3.2a5,5,0,0,0,3.3-1.3,3.78,3.78,0,0,0,1.2-2.8,4,4,0,0,0-1-2.9,4.58,4.58,0,0,0-2.1-1.4l-2.9-1.2c-.8-.3-1.1-.7-1.1-1.2a.91.91,0,0,1,.4-.8,1.61,1.61,0,0,1,1.1-.3,2.49,2.49,0,0,1,2.2,1.6l2.9-1.4a5.52,5.52,0,0,0-3.8-3.1v-3h-1.5v2.9a4.64,4.64,0,0,0-3.1,1.3,4,4,0,0,0-1.2,2.9q0,2.7,3,3.9l2.7,1c.9.4,1.4.9,1.4,1.5a1.27,1.27,0,0,1-.4.9,2.27,2.27,0,0,1-1.3.3,3,3,0,0,1-1.8-.5A4.08,4.08,0,0,1,217,154l-3,1.2a5.45,5.45,0,0,0,1.7,2.7,5.36,5.36,0,0,0,3.1,1.2v3.2h1.3Zm12,0v-3.2a5,5,0,0,0,3.3-1.3,3.78,3.78,0,0,0,1.2-2.8,4,4,0,0,0-1-2.9,4.58,4.58,0,0,0-2.1-1.4l-2.9-1.2c-.8-.3-1.1-.7-1.1-1.2a.91.91,0,0,1,.4-.8,1.49,1.49,0,0,1,1-.3,2.49,2.49,0,0,1,2.2,1.6l2.9-1.4a5.52,5.52,0,0,0-3.8-3.1v-3h-1.5v2.9a4.64,4.64,0,0,0-3.1,1.3,4,4,0,0,0-1.2,2.9q0,2.7,3,3.9l2.7,1c.9.4,1.4.9,1.4,1.5a1,1,0,0,1-.4.9,2.27,2.27,0,0,1-1.3.3,3,3,0,0,1-1.8-.5,4.08,4.08,0,0,1-1.1-1.6l-3,1.2a5.45,5.45,0,0,0,1.7,2.7,5.1,5.1,0,0,0,3.1,1.2v3.2h1.4Z" fill="#574cfa"/><path d="M239.7,159.1l2.4-6.5h-.9l-2.4,6.5Zm3.8,0v-2.6c0-.3,0-.5.1-.6a2.19,2.19,0,0,1,.3-.5c.2-.1.3-.2.5-.2.4,0,.7.2.7.6v3.3h1.1v-2.6c0-.3,0-.5.1-.6a2.19,2.19,0,0,1,.3-.5c.2-.1.3-.2.5-.2.4,0,.7.2.7.6v3.3h1.1V156a2.22,2.22,0,0,0-.1-.9,1.37,1.37,0,0,0-.5-.8,1.22,1.22,0,0,0-.9-.3,1.14,1.14,0,0,0-.8.3,2,2,0,0,0-.6.7,1.79,1.79,0,0,0-.5-.7,1.14,1.14,0,0,0-.8-.3,1.48,1.48,0,0,0-1.3.9v-.8h-1.1V159h1.2Zm9.4.1a2.4,2.4,0,1,0-1.8-.7A2.27,2.27,0,0,0,252.9,159.2Zm0-1a1.16,1.16,0,0,1-1-.4,2.1,2.1,0,0,1-.4-1.1,1.5,1.5,0,0,1,.4-1.1,1.28,1.28,0,0,1,1-.4,1.16,1.16,0,0,1,1,.4,1.71,1.71,0,0,1,0,2.2A1.78,1.78,0,0,1,252.9,158.2Z" fill="#070e15"/><path d="M110.3,159.2v-1.5h-2.9v-6.3h-1.7v7.9h4.6Zm1.7-6.3a1.45,1.45,0,0,0,.7-.2.71.71,0,0,0,.3-.6.6.6,0,0,0-.3-.6,1.32,1.32,0,0,0-1.4,0,.71.71,0,0,0-.3.6.6.6,0,0,0,.3.6A1.45,1.45,0,0,0,112,152.9Zm.8,6.3v-5.9h-1.6v5.9Zm4.8.1a2.46,2.46,0,0,0,1.9-.9,3.43,3.43,0,0,0,0-4.4,2.27,2.27,0,0,0-1.8-.9,2,2,0,0,0-1.1.3,2.7,2.7,0,0,0-.8.7v-2.8h-1.6v7.9h1.6v-.7A2.17,2.17,0,0,0,117.6,159.3Zm-.4-1.4a1.23,1.23,0,0,1-1-.5,2,2,0,0,1,0-2.4,1.28,1.28,0,0,1,1-.4,1.23,1.23,0,0,1,1,.5,2,2,0,0,1,0,2.4A1.53,1.53,0,0,1,117.2,157.9Zm6.8,1.4a3.1,3.1,0,0,0,1.7-.5,2,2,0,0,0,.9-1.3l-1.6-.2a1.29,1.29,0,0,1-1.1.5,1.22,1.22,0,0,1-.9-.3,1.37,1.37,0,0,1-.5-.8h4.1v-.5a3.29,3.29,0,0,0-.8-2.2,2.58,2.58,0,0,0-2.1-.9,2.52,2.52,0,0,0-2,.9,2.94,2.94,0,0,0-.9,2.2,3.11,3.11,0,0,0,.8,2.2A3.78,3.78,0,0,0,124,159.3Zm1.2-3.6h-2.5a2,2,0,0,1,.4-.8,1.14,1.14,0,0,1,.8-.3A1.29,1.29,0,0,1,125.2,155.7Zm4.3,3.5v-2.7c0-.4,0-.7.1-.8a1.22,1.22,0,0,1,1.3-.9,2,2,0,0,1,.7.1v-1.7h-.4a1.69,1.69,0,0,0-1.7,1.3v-1.2h-1.6v5.9Zm5.2,0v-4.5h1.1v-1.4h-1.1v-1.4l-1.6.2v1.2H132v1.4h1.1v4.5Zm4.5,1.8,3.3-7.8h-1.8l-1.3,3.6-1.4-3.6h-1.8l2.3,5.6-1,2.2Zm8.4-1.8v-5.5l1.8,3.3h1.2l1.9-3.3v5.5h1.7v-7.9h-2.1l-2,3.6-2-3.6H146v7.9Zm10,.1a1.94,1.94,0,0,0,1.6-1.1v1h1.6v-5.9h-1.6v3.2a1.48,1.48,0,0,1-.1.7c-.1.5-.4.7-1,.7s-.8-.2-.8-.6v-3.9h-1.6v3.4a4.15,4.15,0,0,0,.1,1.3,2.07,2.07,0,0,0,.6,1C156.7,159.4,157.1,159.3,157.6,159.3Zm6.6-.1v-4.5h1.1v-1.4h-1.1v-1.4l-1.6.2v1.2h-1.1v1.4h1.1v4.5Zm3.8.1a1.94,1.94,0,0,0,1.6-1.1v1h1.6v-5.9h-1.6v3.2a1.48,1.48,0,0,1-.1.7c-.1.5-.4.7-1,.7s-.8-.2-.8-.6v-3.9H166v3.4a4.15,4.15,0,0,0,.1,1.3,2.07,2.07,0,0,0,.6,1C167,159.4,167.5,159.3,168,159.3Zm9.3,0a.75.75,0,0,0,.5-.1v-1.3h-.2a.27.27,0,0,1-.3-.3v-2.1a2.77,2.77,0,0,0-.3-1.3,2.25,2.25,0,0,0-2.1-1.1,2.79,2.79,0,0,0-1.8.6,2.24,2.24,0,0,0-.8,1.5l1.6.1a.8.8,0,0,1,.9-.7.85.85,0,0,1,.6.2.76.76,0,0,1,.2.5.37.37,0,0,1-.4.4l-1.1.2a2.62,2.62,0,0,0-1.5.6,1.69,1.69,0,0,0,0,2.4,2,2,0,0,0,1.3.4,1.86,1.86,0,0,0,1.7-1A2,2,0,0,0,177.3,159.3Zm-2.8-1.2a.76.76,0,0,1-.5-.2.5.5,0,0,1,0-.8,1.63,1.63,0,0,1,.6-.3l.6-.2a4.2,4.2,0,0,0,.5-.2v.3a1.49,1.49,0,0,1-.3,1A1.09,1.09,0,0,1,174.5,158.1Zm5.8,1.1v-7.9h-1.6v7.9Z" fill="#070e15"/><path d="M266.56,241.43H48.16a3.33,3.33,0,0,1-3.3-3.3v-53.5a3.33,3.33,0,0,1,3.3-3.3h218.4a3.33,3.33,0,0,1,3.3,3.3v53.6a3.31,3.31,0,0,1-3.3,3.2" fill="#fff" fill-rule="evenodd"/><path d="M266.56,241.43H48.16a3.33,3.33,0,0,1-3.3-3.3v-53.5a3.33,3.33,0,0,1,3.3-3.3h218.4a3.33,3.33,0,0,1,3.3,3.3v53.6A3.31,3.31,0,0,1,266.56,241.43Z" fill="none" stroke="#070e15" stroke-linecap="round" stroke-linejoin="round" stroke-width="2"/><path d="M220.1,218.6v-3.2a5,5,0,0,0,3.3-1.3,3.78,3.78,0,0,0,1.2-2.8,4,4,0,0,0-1-2.9,4.58,4.58,0,0,0-2.1-1.4l-2.9-1.2c-.8-.3-1.1-.7-1.1-1.2a.91.91,0,0,1,.4-.8,1.61,1.61,0,0,1,1.1-.3,2.49,2.49,0,0,1,2.2,1.6l2.9-1.4a5.52,5.52,0,0,0-3.8-3.1v-3h-1.5v2.9a4.64,4.64,0,0,0-3.1,1.3,4,4,0,0,0-1.2,2.9q0,2.7,3,3.9l2.7,1c.9.4,1.4.9,1.4,1.5a1.27,1.27,0,0,1-.4.9,2.27,2.27,0,0,1-1.3.3,3,3,0,0,1-1.8-.5,4.08,4.08,0,0,1-1.1-1.6l-3,1.2a5.45,5.45,0,0,0,1.7,2.7,5.36,5.36,0,0,0,3.1,1.2v3.2h1.3Zm12,0v-3.2a5,5,0,0,0,3.3-1.3,3.78,3.78,0,0,0,1.2-2.8,4,4,0,0,0-1-2.9,4.58,4.58,0,0,0-2.1-1.4l-2.9-1.2c-.8-.3-1.1-.7-1.1-1.2a.91.91,0,0,1,.4-.8,1.49,1.49,0,0,1,1-.3,2.49,2.49,0,0,1,2.2,1.6l2.9-1.4a5.52,5.52,0,0,0-3.8-3.1v-3h-1.5v2.9a4.64,4.64,0,0,0-3.1,1.3,4,4,0,0,0-1.2,2.9q0,2.7,3,3.9l2.7,1c.9.4,1.4.9,1.4,1.5a1,1,0,0,1-.4.9,2.27,2.27,0,0,1-1.3.3,3,3,0,0,1-1.8-.5,4.08,4.08,0,0,1-1.1-1.6l-3,1.2a5.45,5.45,0,0,0,1.7,2.7,5.1,5.1,0,0,0,3.1,1.2v3.2h1.4Z" fill="#574cfa"/><path d="M239.7,215.2l2.4-6.5h-.9l-2.4,6.5Zm3.8,0v-2.6c0-.3,0-.5.1-.6a2.19,2.19,0,0,1,.3-.5c.2-.1.3-.2.5-.2.4,0,.7.2.7.6v3.3h1.1v-2.6c0-.3,0-.5.1-.6a2.19,2.19,0,0,1,.3-.5c.2-.1.3-.2.5-.2.4,0,.7.2.7.6v3.3h1.1v-3.1a2.22,2.22,0,0,0-.1-.9,1.37,1.37,0,0,0-.5-.8,1.22,1.22,0,0,0-.9-.3,1.14,1.14,0,0,0-.8.3,2,2,0,0,0-.6.7,1.79,1.79,0,0,0-.5-.7,1.14,1.14,0,0,0-.8-.3,1.48,1.48,0,0,0-1.3.9v-.8h-1.1v4.9h1.2Zm9.4.1a2.4,2.4,0,1,0-1.8-.7A2.27,2.27,0,0,0,252.9,215.3Zm0-1a1.16,1.16,0,0,1-1-.4,2.1,2.1,0,0,1-.4-1.1,1.5,1.5,0,0,1,.4-1.1,1.28,1.28,0,0,1,1-.4,1.16,1.16,0,0,1,1,.4,1.71,1.71,0,0,1,0,2.2A1.78,1.78,0,0,1,252.9,214.3Z" fill="#070e15"/><path d="M106.7,215.3l.5-1.5h3.2l.5,1.5h1.8l-3-7.9H108l-3.1,7.9Zm3.1-3h-2l1-2.7Zm5.3,3v-7.9h-1.6v7.9Zm3,0v-7.9h-1.6v7.9Zm3.4.1a2.17,2.17,0,0,0,1.4-.5,1.49,1.49,0,0,0,.6-1.3,1.8,1.8,0,0,0-.3-1.1,4.36,4.36,0,0,0-1-.8l-.9-.4c-.2-.1-.3-.2-.3-.4s.1-.3.4-.3a1.38,1.38,0,0,1,.9.5l1-1a2.42,2.42,0,0,0-1.9-1,2.39,2.39,0,0,0-1.4.5,1.49,1.49,0,0,0-.6,1.3,1.79,1.79,0,0,0,1.2,1.7l.9.4c.3.1.5.3.5.5s-.1.3-.4.3a1.57,1.57,0,0,1-1.3-.7l-1.1.9A2.21,2.21,0,0,0,121.5,215.4Zm4.8-.1v-4.5h1.1v-1.4h-1.1V208l-1.6.2v1.2h-1.1v1.4h1.1v4.5Zm6.6.1a.75.75,0,0,0,.5-.1V214h-.2a.27.27,0,0,1-.3-.3v-2.1a2.77,2.77,0,0,0-.3-1.3,2.25,2.25,0,0,0-2.1-1.1,2.79,2.79,0,0,0-1.8.6,2.24,2.24,0,0,0-.8,1.5l1.6.1a.8.8,0,0,1,.9-.7.85.85,0,0,1,.6.2c.2.1.2.3.2.5a.37.37,0,0,1-.4.4l-1.1.2a2.62,2.62,0,0,0-1.5.6,1.69,1.69,0,0,0,0,2.4,2,2,0,0,0,1.3.4,1.86,1.86,0,0,0,1.7-1A2,2,0,0,0,132.9,215.4Zm-2.8-1.2a.76.76,0,0,1-.5-.2.5.5,0,0,1,0-.8,1.63,1.63,0,0,1,.6-.3l.6-.2a4.2,4.2,0,0,0,.5-.2v.3a1.49,1.49,0,0,1-.3,1A1.27,1.27,0,0,1,130.1,214.2Zm6.1,1.1v-4.5h1.1v-1.4h-1.1V208l-1.6.2v1.2h-1.1v1.4h1.1v4.5Zm4.6.1a3.1,3.1,0,0,0,1.7-.5,2,2,0,0,0,.9-1.3l-1.6-.2a1.29,1.29,0,0,1-1.1.5,1.22,1.22,0,0,1-.9-.3,1.37,1.37,0,0,1-.5-.8h4.1v-.5a3.29,3.29,0,0,0-.8-2.2,2.58,2.58,0,0,0-2.1-.9,2.52,2.52,0,0,0-2,.9,2.94,2.94,0,0,0-.9,2.2,3.11,3.11,0,0,0,.8,2.2A3.3,3.3,0,0,0,140.8,215.4Zm1.1-3.6h-2.5a2,2,0,0,1,.4-.8,1.14,1.14,0,0,1,.8-.3A1.16,1.16,0,0,1,141.9,211.8Z" fill="#070e15"/><path d="M266.56,301.55H48.16a3.33,3.33,0,0,1-3.3-3.3v-53.5a3.33,3.33,0,0,1,3.3-3.3h218.4a3.33,3.33,0,0,1,3.3,3.3v53.6a3.31,3.31,0,0,1-3.3,3.2" fill="#fff" fill-rule="evenodd"/><path d="M266.56,301.55H48.16a3.33,3.33,0,0,1-3.3-3.3v-53.5a3.33,3.33,0,0,1,3.3-3.3h218.4a3.33,3.33,0,0,1,3.3,3.3v53.6A3.31,3.31,0,0,1,266.56,301.55Z" fill="none" stroke="#070e15" stroke-linecap="round" stroke-linejoin="round" stroke-width="2"/><path d="M220.1,278.7v-3.2a5,5,0,0,0,3.3-1.3,3.78,3.78,0,0,0,1.2-2.8,4,4,0,0,0-1-2.9,4.58,4.58,0,0,0-2.1-1.4l-2.9-1.2c-.8-.3-1.1-.7-1.1-1.2a.91.91,0,0,1,.4-.8,1.61,1.61,0,0,1,1.1-.3,2.49,2.49,0,0,1,2.2,1.6l2.9-1.4a5.52,5.52,0,0,0-3.8-3.1v-3h-1.5v2.9a4.64,4.64,0,0,0-3.1,1.3,4,4,0,0,0-1.2,2.9q0,2.7,3,3.9l2.7,1c.9.4,1.4.9,1.4,1.5a1.27,1.27,0,0,1-.4.9,2.27,2.27,0,0,1-1.3.3,3,3,0,0,1-1.8-.5,3.84,3.84,0,0,1-1.1-1.7l-3,1.2a5.45,5.45,0,0,0,1.7,2.7,5.36,5.36,0,0,0,3.1,1.2v3.2h1.3Zm12,0v-3.2a5,5,0,0,0,3.3-1.3,3.78,3.78,0,0,0,1.2-2.8,4,4,0,0,0-1-2.9,4.58,4.58,0,0,0-2.1-1.4l-2.9-1.2c-.8-.3-1.1-.7-1.1-1.2a.91.91,0,0,1,.4-.8,1.49,1.49,0,0,1,1-.3,2.49,2.49,0,0,1,2.2,1.6l2.9-1.4a5.52,5.52,0,0,0-3.8-3.1v-3h-1.5v2.9a4.64,4.64,0,0,0-3.1,1.3,4,4,0,0,0-1.2,2.9q0,2.7,3,3.9l2.7,1c.9.4,1.4.9,1.4,1.5a1,1,0,0,1-.4.9,2.27,2.27,0,0,1-1.3.3,3,3,0,0,1-1.8-.5,3.84,3.84,0,0,1-1.1-1.7l-3,1.2a5.45,5.45,0,0,0,1.7,2.7,5.1,5.1,0,0,0,3.1,1.2v3.2h1.4Z" fill="#574cfa"/><path d="M239.7,275.3l2.4-6.5h-.9l-2.4,6.5Zm3.8,0v-2.6c0-.3,0-.5.1-.6a2.19,2.19,0,0,1,.3-.5c.2-.1.3-.2.5-.2.4,0,.7.2.7.6v3.3h1.1v-2.6c0-.3,0-.5.1-.6a2.19,2.19,0,0,1,.3-.5c.2-.1.3-.2.5-.2.4,0,.7.2.7.6v3.3h1.1v-3.1a2.22,2.22,0,0,0-.1-.9,1.37,1.37,0,0,0-.5-.8,1.22,1.22,0,0,0-.9-.3,1.14,1.14,0,0,0-.8.3,2,2,0,0,0-.6.7,1.79,1.79,0,0,0-.5-.7,1.14,1.14,0,0,0-.8-.3,1.48,1.48,0,0,0-1.3.9v-.8h-1.1v4.9h1.2Zm9.4.1a2.4,2.4,0,1,0-1.8-.7A2.27,2.27,0,0,0,252.9,275.4Zm0-1a1.16,1.16,0,0,1-1-.4,1.71,1.71,0,0,1,0-2.2,1.28,1.28,0,0,1,1-.4,1.16,1.16,0,0,1,1,.4,2.1,2.1,0,0,1,.4,1.1,1.5,1.5,0,0,1-.4,1.1A1.78,1.78,0,0,1,252.9,274.4Z" fill="#070e15"/><path d="M266.56,61.1H48.16a3.33,3.33,0,0,1-3.3-3.3V4.3A3.33,3.33,0,0,1,48.16,1h218.4a3.33,3.33,0,0,1,3.3,3.3V57.9a3.31,3.31,0,0,1-3.3,3.2" fill="#fff" fill-rule="evenodd"/><path d="M266.56,61.1H48.16a3.33,3.33,0,0,1-3.3-3.3V4.3A3.33,3.33,0,0,1,48.16,1h218.4a3.33,3.33,0,0,1,3.3,3.3V57.9A3.31,3.31,0,0,1,266.56,61.1Z" fill="none" stroke="#070e15" stroke-linecap="round" stroke-linejoin="round" stroke-width="2"/><path d="M220.1,36.2V33a5,5,0,0,0,3.3-1.3,3.78,3.78,0,0,0,1.2-2.8,4,4,0,0,0-1-2.9,4.58,4.58,0,0,0-2.1-1.4l-2.9-1.2c-.8-.3-1.1-.7-1.1-1.2a.91.91,0,0,1,.4-.8,1.61,1.61,0,0,1,1.1-.3,2.49,2.49,0,0,1,2.2,1.6l2.9-1.4a5.52,5.52,0,0,0-3.8-3.1v-3h-1.5v2.9a4.64,4.64,0,0,0-3.1,1.3,4,4,0,0,0-1.2,2.9q0,2.7,3,3.9l2.7,1c.9.4,1.4.9,1.4,1.5a1.27,1.27,0,0,1-.4.9,2.27,2.27,0,0,1-1.3.3,3,3,0,0,1-1.8-.5,4.08,4.08,0,0,1-1.1-1.6L214,29a5.45,5.45,0,0,0,1.7,2.7,5.36,5.36,0,0,0,3.1,1.2v3.2h1.3Zm12,0V33a5,5,0,0,0,3.3-1.3,3.78,3.78,0,0,0,1.2-2.8,4,4,0,0,0-1-2.9,4.58,4.58,0,0,0-2.1-1.4l-2.9-1.2c-.8-.3-1.1-.7-1.1-1.2a.91.91,0,0,1,.4-.8,1.49,1.49,0,0,1,1-.3,2.49,2.49,0,0,1,2.2,1.6l2.9-1.4a5.52,5.52,0,0,0-3.8-3.1v-3h-1.5v2.9a4.64,4.64,0,0,0-3.1,1.3,4,4,0,0,0-1.2,2.9q0,2.7,3,3.9l2.7,1c.9.4,1.4.9,1.4,1.5a1,1,0,0,1-.4.9,2.27,2.27,0,0,1-1.3.3,3,3,0,0,1-1.8-.5,4.08,4.08,0,0,1-1.1-1.6l-3,1.2a5.45,5.45,0,0,0,1.7,2.7,5.1,5.1,0,0,0,3.1,1.2v3.2h1.4Z" fill="#574cfa"/><path d="M239.7,32.8l2.4-6.5h-.9l-2.4,6.5Zm3.8,0V30.2c0-.3,0-.5.1-.6a2.19,2.19,0,0,1,.3-.5c.2-.1.3-.2.5-.2.4,0,.7.2.7.6v3.3h1.1V30.2c0-.3,0-.5.1-.6a2.19,2.19,0,0,1,.3-.5.76.76,0,0,1,.5-.2c.4,0,.7.2.7.6v3.3h1.1V29.7a2.22,2.22,0,0,0-.1-.9,1.37,1.37,0,0,0-.5-.8,1.22,1.22,0,0,0-.9-.3,1.14,1.14,0,0,0-.8.3,2,2,0,0,0-.6.7,1.79,1.79,0,0,0-.5-.7,1.14,1.14,0,0,0-.8-.3,1.48,1.48,0,0,0-1.3.9V28h-1.1v4.9h1.2Zm9.4.2a2.4,2.4,0,1,0-1.8-.7A2.27,2.27,0,0,0,252.9,33Zm0-1.1a1.16,1.16,0,0,1-1-.4,2.1,2.1,0,0,1-.4-1.1,1.5,1.5,0,0,1,.4-1.1,1.28,1.28,0,0,1,1-.4,1.16,1.16,0,0,1,1,.4,1.71,1.71,0,0,1,0,2.2A1.28,1.28,0,0,1,252.9,31.9Z" fill="#070e15"/><path d="M107.3,33V30.2h1.2a3.07,3.07,0,0,0,2.2-.7,2.5,2.5,0,0,0,.8-1.8,2.14,2.14,0,0,0-.7-1.8,2.82,2.82,0,0,0-2.1-.7h-3.1V33Zm1.3-4.4h-1.3v-2h1.3a1.14,1.14,0,0,1,.8.3,1,1,0,0,1,0,1.4A1,1,0,0,1,108.6,28.6Zm5.5,4.4V30.3c0-.4,0-.7.1-.8a1.22,1.22,0,0,1,1.3-.9,2,2,0,0,1,.7.1V27h-.4a1.69,1.69,0,0,0-1.7,1.3V27.1h-1.6V33Zm5.5.1a3.11,3.11,0,0,0,2.2-5.3,3.11,3.11,0,0,0-4.4,4.4A3.1,3.1,0,0,0,119.6,33.1Zm0-1.5a1.61,1.61,0,0,1-1.1-.5,1.5,1.5,0,0,1-.4-1.1,1.37,1.37,0,0,1,.4-1.1,1.46,1.46,0,0,1,2.2,0,1.71,1.71,0,0,1,0,2.2A1.43,1.43,0,0,1,119.6,31.6Zm6.9,3.3a2.75,2.75,0,0,0,2.9-2.9V27.1h-1.6v.8a1.92,1.92,0,0,0-1.6-.9,2.5,2.5,0,0,0-1.8.8,2.9,2.9,0,0,0,0,4,2.56,2.56,0,0,0,1.9.8,1.8,1.8,0,0,0,1.6-.9V32a1.8,1.8,0,0,1-.3,1.1,1.05,1.05,0,0,1-1,.4c-.7,0-1.1-.2-1.3-.7l-1.6.2a2.43,2.43,0,0,0,.9,1.4A3.09,3.09,0,0,0,126.5,34.9Zm0-3.8a1.28,1.28,0,0,1-1-.4,1.78,1.78,0,0,1-.4-1,1.16,1.16,0,0,1,.4-1,1.78,1.78,0,0,1,1-.4,1.28,1.28,0,0,1,1,.4,1.78,1.78,0,0,1,.4,1,1.16,1.16,0,0,1-.4,1A1.28,1.28,0,0,1,126.5,31.1Zm5.8,1.9V30.3c0-.4,0-.7.1-.8a1.22,1.22,0,0,1,1.3-.9,2,2,0,0,1,.7.1V27H134a1.69,1.69,0,0,0-1.7,1.3V27.1h-1.6V33Zm5.5.1a3.1,3.1,0,0,0,1.7-.5,2,2,0,0,0,.9-1.3l-1.6-.2a1.29,1.29,0,0,1-1.1.5,1.22,1.22,0,0,1-.9-.3,1.37,1.37,0,0,1-.5-.8h4.1V30a3.29,3.29,0,0,0-.8-2.2,2.58,2.58,0,0,0-2.1-.9,2.52,2.52,0,0,0-2,.9,2.94,2.94,0,0,0-.9,2.2,3.11,3.11,0,0,0,.8,2.2A3.78,3.78,0,0,0,137.8,33.1Zm1.2-3.6h-2.5a2,2,0,0,1,.4-.8,1.14,1.14,0,0,1,.8-.3C138.4,28.4,138.8,28.7,139,29.5Zm4.6,3.6a2.17,2.17,0,0,0,1.4-.5,1.49,1.49,0,0,0,.6-1.3,1.8,1.8,0,0,0-.3-1.1,4.36,4.36,0,0,0-1-.8l-.9-.4c-.2-.1-.3-.2-.3-.4s.1-.3.4-.3a1.38,1.38,0,0,1,.9.5l1-1a2.42,2.42,0,0,0-1.9-1,2.39,2.39,0,0,0-1.4.5,1.49,1.49,0,0,0-.6,1.3,1.79,1.79,0,0,0,1.2,1.7l.9.4c.3.1.5.3.5.5s-.1.3-.4.3a1.57,1.57,0,0,1-1.3-.7l-1.1.9A2.38,2.38,0,0,0,143.6,33.1Zm4.9,0a2.17,2.17,0,0,0,1.4-.5,1.49,1.49,0,0,0,.6-1.3,1.8,1.8,0,0,0-.3-1.1,4.36,4.36,0,0,0-1-.8l-.9-.4c-.2-.1-.3-.2-.3-.4s.1-.3.4-.3a1.38,1.38,0,0,1,.9.5l1-1a2.42,2.42,0,0,0-1.9-1,2.39,2.39,0,0,0-1.4.5,1.49,1.49,0,0,0-.6,1.3,1.79,1.79,0,0,0,1.2,1.7l.9.4c.3.1.5.3.5.5s-.1.3-.4.3a1.57,1.57,0,0,1-1.3-.7l-1.1.9A2.38,2.38,0,0,0,148.5,33.1Zm3.7-6.4a1.45,1.45,0,0,0,.7-.2.71.71,0,0,0,.3-.6.6.6,0,0,0-.3-.6,1.32,1.32,0,0,0-1.4,0,.71.71,0,0,0-.3.6.6.6,0,0,0,.3.6A1.85,1.85,0,0,0,152.2,26.7ZM153,33V27.1h-1.6V33Zm4.6,0,2.3-5.9h-1.7l-1.3,3.8-1.3-3.8h-1.8L156,33Zm5.6.1a3.1,3.1,0,0,0,1.7-.5,2,2,0,0,0,.9-1.3l-1.6-.2a1.29,1.29,0,0,1-1.1.5,1.22,1.22,0,0,1-.9-.3,2.18,2.18,0,0,1-.5-.8h4.1V30a3.29,3.29,0,0,0-.8-2.2,2.58,2.58,0,0,0-2.1-.9,2.52,2.52,0,0,0-2,.9A2.94,2.94,0,0,0,160,30a3.11,3.11,0,0,0,.8,2.2A3.78,3.78,0,0,0,163.2,33.1Zm1.1-3.6h-2.5a2,2,0,0,1,.4-.8,1.14,1.14,0,0,1,.8-.3C163.8,28.4,164.2,28.7,164.3,29.5Z" fill="#070e15"/><path d="M78,156.2a4.13,4.13,0,0,0-.9.4v.4a2.65,2.65,0,0,1,.6.5l.3-.1-.1-.2a1,1,0,0,1,.4-.1.84.84,0,0,1,.7.2l.7-.2.1-.1a1.81,1.81,0,0,0-1.8-.8" fill="#132f53" fill-rule="evenodd"/><path d="M76.6,153.4a1.61,1.61,0,0,0-.5,1.5,7.05,7.05,0,0,1,.9-.7Z" fill="#132f53" fill-rule="evenodd"/><path d="M79.3,154.2l.2-1.1a2.38,2.38,0,0,0-1.2-.3,1.8,1.8,0,0,0-1.1.3l.3,1a3.6,3.6,0,0,1,1.8.1" fill="#132f53" fill-rule="evenodd"/><path d="M81.9,154.4c-.2-.2-1.4-.9-1.7-1.1l-.4,1a11.79,11.79,0,0,1,1.6.8Z" fill="#132f53" fill-rule="evenodd"/><path d="M84.3,156a2.63,2.63,0,0,0-.7-1.5l4.2-1.9Zm-.4,6.3a5.82,5.82,0,0,1-.5-1.1s-.6-1.1-.7-1.3a.76.76,0,0,1,0-.8,2.28,2.28,0,0,1,.9-.8l.1,1.4s.9,1.7,1.3,2.6a4.05,4.05,0,0,0-1.1,0Zm-5.4,1.4-.4-1.4L79,161a6.83,6.83,0,0,1-1.3.4.47.47,0,0,1-.6-.4,2.27,2.27,0,0,1-.1-.4c0-.1.1-.3.2-.2h.3l.2-.3a1,1,0,0,1-.4-.1h-.4c-.1-.1-.2-.2-.2-.3h1v-.1a3.39,3.39,0,0,0-.8-.3.44.44,0,0,0-.3.1v-.2l.6-.5-.6-.3-.3.1.2-1.4-.1-.2-.6.4v-.8c0-.2.3-.4.5-.6v-.5c-.2.2-.5.2-.7.5a1.91,1.91,0,0,0-.3.8,1,1,0,0,1-.2-.7,1.61,1.61,0,0,1,.4-.7,2,2,0,0,1,0-1.1,2.54,2.54,0,0,1,2.7-1.9,6.07,6.07,0,0,1,3.2,1.3,6.33,6.33,0,0,1,1.8,1.9c0,.1.1.3,0,.4a9.32,9.32,0,0,0-1-1l-.5.7,1,.9a1.22,1.22,0,0,1-.9.2c-.5-.1-1.6-.7-1.6-1.3a6,6,0,0,0-2.2-.5,3.92,3.92,0,0,0-1.3.2c-.2.1-.3-.1-.5-.1h-.1l.4.6c.1.1.4-.1.7-.1a3.31,3.31,0,0,1,1.9.3,7.94,7.94,0,0,1,1.7,1.4c.2.2.6.3.7.1s.4-.1.4,0-.1.4.1.5.3-.1.4-.2.2-.1.4,0a3.74,3.74,0,0,1-.6.7c-.2.2-.6.4-.8.3v.4l1,2.4a9.74,9.74,0,0,1,.5,1.1,18,18,0,0,0-4.4,1.2ZM73,166.5a26.81,26.81,0,0,0,.7-2.7,3.19,3.19,0,0,1,1-2.3,1.67,1.67,0,0,1,1.3-.3l1.1,2.3a.78.78,0,0,0,.7.3,17.77,17.77,0,0,0-4.8,2.7Zm-1,.7c-.3.5-1.2,1.6-1.5,2a11,11,0,0,0,.6-3.5,16,16,0,0,1,0-3.8,4.43,4.43,0,0,1,1.4-2.8,2.63,2.63,0,0,1,2.5-.6l1,1.9a2.09,2.09,0,0,0-1.7.4,3.69,3.69,0,0,0-1.3,3,8.59,8.59,0,0,1-1,3.4Zm-3.2-11.5c-.1-.1-.3-4.9-.4-6.5v-.5l.4-.3v-.1a.78.78,0,0,1-.7-.3l-.1-2a1.22,1.22,0,0,1-.9-.3c-.2-.1-.3-.3-.1-.7a2.9,2.9,0,0,0,1.1.3c.1,0,.3.2.4.3a4.33,4.33,0,0,1,.5.1c.1,0,.1.3.2.3h0c.1.3,3.3,8.7,3.4,8.8s.2,1.5.3,1.7a8.43,8.43,0,0,0,.6,1.4,2.58,2.58,0,0,0-1.7.8,5.43,5.43,0,0,0-1.2,2.4c-.2-.3-1.8-5.3-1.8-5.4Zm-.7-5.3a2.37,2.37,0,0,0-1-.3,1.69,1.69,0,0,0-1,.3.45.45,0,0,1,0-.5c.1-.2.2-.2.2-.2l-.1-1.8a3.11,3.11,0,0,1,.6-.4c.1,0,.2-.1.2-.3l.7.7a1.33,1.33,0,0,1,.3.8v1c.1.1.2.2.2.3s-.1.2-.1.4Zm-2.2-2.9a1.33,1.33,0,0,0-.3.5c-.2-.1-.3-.5-.4-.7a1.18,1.18,0,0,1,.6-.5h-.7c-.1-.1-.1-.4-.1-.6h.3l-.2-.3a2.54,2.54,0,0,1,1.3-.5v.4c0,.1,0,.2-.1.2l-.3.1h.7c.1,0,.2,0,.2.2a.37.37,0,0,1-.1.3.6.6,0,0,1-.4.1v.3c0,.1,0,.2-.1.2s-.3.2-.4.3Zm2.8-2.5a2.73,2.73,0,0,0-1.6-.6c-.8,0-1.4.4-1.4.6a.72.72,0,0,1,.2-.8,2.1,2.1,0,0,1,1.1-.4,1.8,1.8,0,0,1,1.3.4.8.8,0,0,1,.4.8Zm-4.7-.4c0-.3-.1-.4-.1-.7s.3-.7.4-1a.82.82,0,0,0-.1-.7c.1,0,.4.1.5.1a.68.68,0,0,0,.4-.3c.1-.2.2-.3.4-.3s.5.2.8.1.5-.5.8-.5.5.4.8.4.7-.3,1-.2.1.6.4.7.7,0,.8-.1c0,.3-.1.4-.1.6a4.18,4.18,0,0,0,.4,1,2.2,2.2,0,0,1-.1.8c0-.8-1-1.8-3.1-1.9-1.9,0-3.2.8-3.2,2Zm1.4-5.1a1.38,1.38,0,0,1,1.5-1.3c.5,0,1,.1,1.3.1a3.73,3.73,0,0,0,1.2-.2.63.63,0,0,1-.1.7,6.88,6.88,0,0,0,1.3.2,1.78,1.78,0,0,0,1.3-.6,1.23,1.23,0,0,1-.2,1c-.5.5-1.8.7-2.1,1s-.5.3-.6.5a.52.52,0,0,0-.4-.2c-.2,0-.3.3-.6.2s-.5-.5-.9-.5-.8.4-1,.4-.3-.2-.4-.3a1.49,1.49,0,0,1-.3-1Zm9.2,17-1.1-.8c0-.3-.1-.7-.1-.9v-.1l1.4.7c-.1.2-.2.3-.2.5v.6Zm1.7-4.3a2.41,2.41,0,0,0-1,1.2L72.7,149Zm2.3-6.4,1,5.9a3.46,3.46,0,0,0-1.8-.2Zm6.3,3.1-2.2,4.7a5.6,5.6,0,0,0-1.5-1Zm4.1,2.9c-.1-.1-.3,0-.3,0L85.4,153l-.9-1.8,1.1-3s.1-.3,0-.4-.3.1-.3.1l-2,1.6a10.52,10.52,0,0,0-2.7-2,5.64,5.64,0,0,0-1.2-.4l-.6-2.4s-.1-.2-.2-.2-.2.2-.2.2l-.4,2.2a5.7,5.7,0,0,0-1.3-.1,9.35,9.35,0,0,0-3.9.8,10,10,0,0,0-1.4.8l-.2.2c-.4-1.1-.7-1.9-.8-2.2a4.2,4.2,0,0,0,.8-1.5,2.19,2.19,0,0,0-.1-1.6,3.81,3.81,0,0,1-.3-1,.76.76,0,0,1,.2-.4.37.37,0,0,0-.4-.4h-.5c-.1,0-.2,0-.1-.2.1-.4.9-.6,1.5-.8a2,2,0,0,0,1.3-1.8,1.55,1.55,0,0,0-.8-1.4,6.53,6.53,0,0,1-.8.7,1.41,1.41,0,0,1-.9.1,1.29,1.29,0,0,0-.5-1.1,1.68,1.68,0,0,1-1.2.5c-.7,0-.7-.2-1.6-.2a2.34,2.34,0,0,0-2.5,2,2.19,2.19,0,0,0,.3,1.7l-.6.6a.44.44,0,0,0-.6,0,.64.64,0,0,1,0,.6A6,6,0,0,0,63,144a2.29,2.29,0,0,0,1.3,2.4.47.47,0,0,0-.1.6.52.52,0,0,0,.4.2.59.59,0,0,0-.1.7c.1.3.4.7.7.7a3.55,3.55,0,0,0,.2,1,1.07,1.07,0,0,0-.2.6.75.75,0,0,0,.5.7c.1.2.1.3.2.5l.4.4a1.45,1.45,0,0,0,.7.2h.6a13.61,13.61,0,0,0,.1,1.6,19.47,19.47,0,0,0-1,6.6h0c0,4.3,1.2,8.1,3.5,10.6a1.11,1.11,0,0,0,.5.4,21.09,21.09,0,0,1,1.8-2.7,9,9,0,0,1,.9-1,18.26,18.26,0,0,1,1.6-1.3,12.42,12.42,0,0,1,4.6-2,21.54,21.54,0,0,0-4.4,2.8,16.32,16.32,0,0,0-3.8,4.7,2.93,2.93,0,0,0,1,.3,22,22,0,0,1,3.4-4.4,15.54,15.54,0,0,1,10.7-4.4,30.28,30.28,0,0,0,.2-3.1,25.41,25.41,0,0,0-.5-4.9L89,152c-.1.1.1-.1,0-.2Z" fill="#132f53" fill-rule="evenodd"/><path d="M12.82,66.31v-9.2a4.23,4.23,0,0,1,4.2-4.2h280.7a4.23,4.23,0,0,1,4.2,4.2v68.2a4.23,4.23,0,0,1-4.2,4.2H17a4.23,4.23,0,0,1-4.2-4.2V80.51" fill="#fff" fill-rule="evenodd"/><path d="M12.82,66.31v-9.2a4.23,4.23,0,0,1,4.2-4.2h280.7a4.23,4.23,0,0,1,4.2,4.2v68.2a4.23,4.23,0,0,1-4.2,4.2H17a4.23,4.23,0,0,1-4.2-4.2V80.51" fill="none" stroke="#070e15" stroke-linecap="round" stroke-linejoin="round" stroke-width="2"/><path d="M238.9,102.8v-4a6.62,6.62,0,0,0,4.1-1.6,4.69,4.69,0,0,0,1.5-3.5,5.22,5.22,0,0,0-1.2-3.6,9.09,9.09,0,0,0-2.7-1.8L237,86.9c-.9-.4-1.4-.9-1.4-1.5a1.39,1.39,0,0,1,.5-1,1.7,1.7,0,0,1,1.3-.4c1.1,0,2,.7,2.8,2l3.6-1.8a6.3,6.3,0,0,0-4.8-3.8V76.6h-2v3.7a5.78,5.78,0,0,0-3.9,1.6,4.91,4.91,0,0,0-1.5,3.6c0,2.3,1.2,3.9,3.8,4.8l3.4,1.3c1.2.4,1.8,1.1,1.8,1.9a1.43,1.43,0,0,1-.6,1.2,2.54,2.54,0,0,1-1.6.4,3.59,3.59,0,0,1-2.2-.6,4.22,4.22,0,0,1-1.3-2.1l-3.7,1.5a6.31,6.31,0,0,0,2.1,3.3,6.22,6.22,0,0,0,3.9,1.5v4h1.7Zm15,0v-4a6.62,6.62,0,0,0,4.1-1.6,4.69,4.69,0,0,0,1.5-3.5,5.22,5.22,0,0,0-1.2-3.6,9.09,9.09,0,0,0-2.7-1.8L252,86.9c-.9-.4-1.4-.9-1.4-1.5a1.39,1.39,0,0,1,.5-1,1.7,1.7,0,0,1,1.3-.4c1.1,0,2,.7,2.8,2l3.6-1.8a6.3,6.3,0,0,0-4.8-3.8V76.6h-2v3.7a5.78,5.78,0,0,0-3.9,1.6,4.91,4.91,0,0,0-1.5,3.6c0,2.3,1.2,3.9,3.8,4.8l3.4,1.3c1.2.4,1.8,1.1,1.8,1.9a1.43,1.43,0,0,1-.6,1.2,2.54,2.54,0,0,1-1.6.4,3.59,3.59,0,0,1-2.2-.6,5.1,5.1,0,0,1-1.4-2.1l-3.7,1.5a6.31,6.31,0,0,0,2.1,3.3,6.84,6.84,0,0,0,3.9,1.5v4h1.8Z" fill="#574cfa"/><path d="M263.5,98.5l3.1-8.6h-1.2l-3.1,8.6Zm5,0V95a2.48,2.48,0,0,1,.1-.9,1.61,1.61,0,0,1,.4-.7,1.08,1.08,0,0,1,.7-.3,1,1,0,0,1,1,.8v4.4h1.4V95a2.48,2.48,0,0,1,.1-.9,1.61,1.61,0,0,1,.4-.7,1.08,1.08,0,0,1,.7-.3,1,1,0,0,1,1,.8v4.4h1.4V94.2a4.12,4.12,0,0,0-.1-1.2,1.7,1.7,0,0,0-.6-1,1.59,1.59,0,0,0-1.2-.4,1.5,1.5,0,0,0-1.1.4,3.45,3.45,0,0,0-.8.9,1.6,1.6,0,0,0-.7-.9,2,2,0,0,0-1.1-.3,2.14,2.14,0,0,0-1.8,1.2v-1h-1.4v6.5h1.6Zm12.5.2a3,3,0,0,0,2.4-1,3.25,3.25,0,0,0,1-2.4,3,3,0,0,0-1-2.4,3.69,3.69,0,0,0-2.4-1,3.41,3.41,0,0,0-3.4,3.4,3,3,0,0,0,1,2.4A3.25,3.25,0,0,0,281,98.7Zm0-1.4a1.82,1.82,0,0,1-1.4-.6,2.18,2.18,0,0,1,0-3,1.93,1.93,0,0,1,2.8,0,2,2,0,0,1,.6,1.5,1.82,1.82,0,0,1-.6,1.4A1.62,1.62,0,0,1,281,97.3Z" fill="#070e15"/><path d="M92.6,97V89.8L97.1,97h2.6V85.5H97.4v7.4l-4.7-7.4H90.3V97Zm16.3.2a2,2,0,0,0,.8-.1v-2a1,1,0,0,0-.3.1c-.3,0-.4-.2-.4-.5V91.6a3.58,3.58,0,0,0-.4-1.9,3.17,3.17,0,0,0-3.1-1.6,4,4,0,0,0-2.6.8,3.11,3.11,0,0,0-1.1,2.1l2.3.1a1.15,1.15,0,0,1,1.3-1,1.22,1.22,0,0,1,.9.3,1,1,0,0,1,.4.7q0,.45-.6.6l-1.6.3a5,5,0,0,0-2.2.9,2.06,2.06,0,0,0-.7,1.7,2.5,2.5,0,0,0,.8,1.8,2.64,2.64,0,0,0,1.9.7,3.14,3.14,0,0,0,2.6-1.4A1.8,1.8,0,0,0,108.9,97.2Zm-4.2-1.8a1.88,1.88,0,0,1-.8-.2.75.75,0,0,1,0-1.2,1.88,1.88,0,0,1,.9-.4l.8-.2c.4-.1.7-.2.8-.4v.5a2.25,2.25,0,0,1-.5,1.5A1.69,1.69,0,0,1,104.7,95.4Zm9,1.6V90.5h1.6V88.4h-1.6V86.3l-2.3.3v1.8h-1.6v2.1h1.6V97Zm3.9-9.2a1.49,1.49,0,0,0,1-.3,1.21,1.21,0,0,0,0-1.8,1.69,1.69,0,0,0-1-.3,1.49,1.49,0,0,0-1,.3,1.27,1.27,0,0,0-.4.9,1,1,0,0,0,.4.9A1.69,1.69,0,0,0,117.6,87.8Zm1.2,9.2V88.3h-2.3V97Zm6.1.2a4.08,4.08,0,0,0,3.2-1.3,4.63,4.63,0,0,0,1.3-3.2,4.08,4.08,0,0,0-1.3-3.2,4.87,4.87,0,0,0-3.3-1.3,4.45,4.45,0,0,0-3.3,1.3,4.22,4.22,0,0,0-1.3,3.2,4.08,4.08,0,0,0,1.3,3.2A5.33,5.33,0,0,0,124.9,97.2Zm0-2.2a2,2,0,0,1-1.6-.7,2.71,2.71,0,0,1,0-3.4,2.18,2.18,0,0,1,3.2,0,2.52,2.52,0,0,1,.6,1.7,2.27,2.27,0,0,1-.6,1.6A1.82,1.82,0,0,1,124.9,95Zm8.5,2V92.3a2.79,2.79,0,0,1,.1-1,1.39,1.39,0,0,1,1.4-1.1,1.06,1.06,0,0,1,1.2,1V97h2.3V91.6a7.12,7.12,0,0,0-.1-1.6,2.16,2.16,0,0,0-.9-1.4,2.31,2.31,0,0,0-1.7-.5,2.68,2.68,0,0,0-2.5,1.6V88.3H131V97Zm11.1,0,1.7-5.3,1.7,5.3h2.5l2.7-8.7h-2.6l-1.3,5.4-1.6-5.4H145l-1.6,5.4-1.2-5.4h-2.7L142,97Zm10.8-9.2a1.49,1.49,0,0,0,1-.3,1.21,1.21,0,0,0,0-1.8,1.69,1.69,0,0,0-1-.3,1.49,1.49,0,0,0-1,.3,1.21,1.21,0,0,0,0,1.8A1.69,1.69,0,0,0,155.3,87.8Zm1.2,9.2V88.3h-2.3V97Zm5.4.2a3.1,3.1,0,0,0,2.7-1.3V97h2.3V85.5h-2.3v4a2.82,2.82,0,0,0-2.6-1.3,3.54,3.54,0,0,0-2.8,1.3,4.32,4.32,0,0,0-1.1,3.2,5.24,5.24,0,0,0,1.1,3.3A3.14,3.14,0,0,0,161.9,97.2Zm.7-2.1a1.8,1.8,0,0,1-1.5-.7,2.52,2.52,0,0,1-.6-1.7,2.79,2.79,0,0,1,.6-1.8,2,2,0,0,1,1.5-.6,1.8,1.8,0,0,1,1.5.7,2.52,2.52,0,0,1,.6,1.7,2.44,2.44,0,0,1-.6,1.8A2.53,2.53,0,0,1,162.6,95.1Zm10.3,2.1a4.09,4.09,0,0,0,2.5-.7,3.14,3.14,0,0,0,1.3-1.9l-2.3-.2a1.94,1.94,0,0,1-1.6.8,2.39,2.39,0,0,1-1.4-.5,1.85,1.85,0,0,1-.7-1.2h6v-.7a4.77,4.77,0,0,0-1.1-3.2,4.06,4.06,0,0,0-3.1-1.3,4,4,0,0,0-3,1.3,4.23,4.23,0,0,0-1.2,3.3,4.46,4.46,0,0,0,1.2,3.3A4.62,4.62,0,0,0,172.9,97.2Zm1.6-5.3h-3.7a2.28,2.28,0,0,1,.6-1.2,1.59,1.59,0,0,1,1.2-.4A1.71,1.71,0,0,1,174.5,91.9Z" fill="#070e15"/><path d="M6,69c-1.7-1.3-3.3-2.7-5-4" fill="none" stroke="#070e15" stroke-linecap="round" stroke-linejoin="round" stroke-width="2"/><line x1="8" y1="76" x2="3" y2="80" fill="none" stroke="#070e15" stroke-linecap="round" stroke-linejoin="round" stroke-width="2"/><path d="M78.4,29.5a2.09,2.09,0,0,0,2-1.3c.1-.2.8-1.7,1.8-3.7.7-1.4.2-1.8-.6-1.8H78.2L75,29.5ZM69.5,41H64L74.5,19H84.6c2.3,0,4.5,1.8,2.7,5.6-1,2.2-1.9,4-2.3,4.9-1.4,2.8-3.2,3.8-6.6,3.8H73.1Z" fill="#3496e1" fill-rule="evenodd"/><path d="M76,222.2c-7.2,0-13-5.1-13-10.9a9.17,9.17,0,0,1,2.4-6.1l.3.3a4.36,4.36,0,0,1,1.1.9c-.1,0-.3,1-.3,1a6.36,6.36,0,0,0-.7,2.4v.1l.3,1.5v.1a15,15,0,0,0,.4,2.4c0,.2,0,.3.1.4a13.75,13.75,0,0,1,2,3.2.1.1,0,0,0,.1.1,2.19,2.19,0,0,0,.3.5.85.85,0,0,0,.7,0,2.94,2.94,0,0,0,1-1.2c.1.1.3.3.3.4a1,1,0,0,0,1.1,1.6c-.3.8.8,1.5,1.7,1a1,1,0,0,0,1,.7,8.16,8.16,0,0,0,1.8.1,7.35,7.35,0,0,0,3-.8,4.14,4.14,0,0,0,1.8-1.6l.1-.1a1,1,0,0,0,.4.5,1.22,1.22,0,0,0,.9.4c.2-.1.4-.1.4-.4a11.9,11.9,0,0,1,2.2-3.3l.1-.1c.2-.7.8-2.2,1.1-3l.2-.7v-.1c0-.2.1-.5.1-.7a7.29,7.29,0,0,0-.5-3,3.92,3.92,0,0,0-.4-.9l-.1-.3a2.55,2.55,0,0,1,1.1-.9,8.93,8.93,0,0,1,2,5.6c-.1,5.8-5.9,10.9-13,10.9m5-20.6-.9.9a18,18,0,0,1-1.6,1.5,4,4,0,0,0-1.9,1.7l-.2.6a4.61,4.61,0,0,0-.9-1.7,4.81,4.81,0,0,0-1.6-1.2c-.3-.3-1.6-1.5-2.3-2.1a19.71,19.71,0,0,1,4.4-.5,16.87,16.87,0,0,1,5,.8m-8.8,16.8c-.8.1-1.1-.4-.9-.7a5.5,5.5,0,0,1,.9.7m1.8.8c-1.1.5-1.7.1-1.4-.5.4.2,1,.3,1.4.5M86.3,205l-.1.1a1.79,1.79,0,0,1-1.3.4c0-.1-.4-.2-.4-.2H84l.1.1c.3.4.4.6.6.9l.1.2.2.3.1.4.1.1.1.2.3,1a10.32,10.32,0,0,1,.4,2.7h0l-.3,1a12.41,12.41,0,0,0-.9,2.8v.1a7.17,7.17,0,0,0-2,2.9l-.1.1c-.1,0-.2-.1-.3-.2a1.9,1.9,0,0,1-.4-1.2,1.75,1.75,0,0,1,.7-1.4.31.31,0,0,0,.1-.2,2.52,2.52,0,0,1,.5-2l.1-.1-.1-.1c-1.3-.9-1.7-2.6-2-3.9h0l-.1.1a.1.1,0,0,0-.1.1,1.7,1.7,0,0,0-.1.7c0,.7.1,1.2.1,1.5a6.92,6.92,0,0,0,1,1.9v.1a13,13,0,0,0-.3,1.5c0,.1.1.3.1.4a1.76,1.76,0,0,0-.7,1.5v.4l-.2.4v.1a5.28,5.28,0,0,1-1.9,1.7,7.92,7.92,0,0,1-4.1.7c-.4-.1-.4-.4-.4-.4s.1-.1.1-.2l.1-.1a7.2,7.2,0,0,0,2.8-.3l.1-.3.1-.1h-.1a7,7,0,0,1-4-.5,4.76,4.76,0,0,1-2.5-2.2l-.3-.4a2.92,2.92,0,0,0-.2-.9,2.25,2.25,0,0,0-.5-.5,2,2,0,0,0,.1-.8,3.59,3.59,0,0,0-.2-1.1,2.23,2.23,0,0,0,1.1-1.7,2,2,0,0,0-.2-.7l-.4-.2.1.2c.1,1-.9,1.8-1.6,2.2l-.1.2h0c.6.3.6,1.4.4,2.1l.1.1.3.2a2.1,2.1,0,0,1-.1,2.4c-.1.1-.1.1-.2.1a.22.22,0,0,1-.2-.2l-.2-.3a15,15,0,0,0-1.7-2.8l-.1-.1a24.91,24.91,0,0,0-.5-3.4l-.1-.5v-.2a6.44,6.44,0,0,1,.7-2.8l.2-.6.2-.5v-.1a7.64,7.64,0,0,1,.9-.9l.3-.1-.3-.1a1.46,1.46,0,0,0-.8.3h-.1c-.4,0-.7.3-1,.1a5,5,0,0,1-.8-.6,15,15,0,0,1,4.8-2.7l.3.3.6.5.3.3a1.2,1.2,0,0,1,.4.4l-.1.1-.1.1-.1.3h.1c.9-.3,1.6.4,2.1.9a5.3,5.3,0,0,1,1.7,3.3l.6,3.5.3.5.1.1.1.2a1.87,1.87,0,0,0,.3.4l.4.2.5.5.1.1.2.2c0,.1.7.1.7.1,1.2.1,1.1.8,1.1.8s.7-1-1-1.5c0,0-.5-.1-.6-.1l-.1-.3a.1.1,0,0,1-.1-.1l-.6-.2-.2-.1a4.17,4.17,0,0,0-.2-.6l-.3-.7a7.47,7.47,0,0,1-.2-1.1l-.1-.3-.2-1.5.1-.3a7,7,0,0,1,.6-1.7,4.35,4.35,0,0,1,1.1-1.2,6,6,0,0,1,1.8-.7c.2,0,.2-.1.2-.2v-.2h0a3.54,3.54,0,0,1-.6-.1h0l.2-.2.4-.4.2-.2a7.32,7.32,0,0,0,.9-.9,11.69,11.69,0,0,1,4.6,3.1M76,200c-8.3,0-15,5.1-15,11.3S67.7,223,76,223s15-5.4,15-11.7S84.3,200,76,200" fill="#06379c" fill-rule="evenodd"/><path d="M79.5,214.9l-.8-.1-.4-.3-.6-.3-.1-.1-.4-.2L76,212a1.1,1.1,0,0,0-.1-.7l-.1.2a1.7,1.7,0,0,1-.6.6l-.1.1,1.2,1.7.1.1.3.4.5.3.1.1.6.4.5.3h.1l.8.1a1.9,1.9,0,0,1,.9.3.87.87,0,0,1,.2.9,1,1,0,0,0,.2-1.2,1.13,1.13,0,0,0-1.1-.7" fill="#06379c" fill-rule="evenodd"/><path d="M77.8,216.1l-.4-.3-.1-.1-.7-.4-.6-.2-.1-.2a8.65,8.65,0,0,0-.7-1H75a4.35,4.35,0,0,1-.4-.7,1.49,1.49,0,0,0,0-.7,1.24,1.24,0,0,0-.2.3c-.1.1-.4.4-.6.4l-.1.1,1.5,2,.1.3.1.1.5.2c.4.1.8.4,1,.4l.6.4a3.19,3.19,0,0,1,1,0,1.6,1.6,0,0,1,1.1.4.83.83,0,0,1-.1.8c.1-.1.6-.4.6-.9-.2-.5-.6-.9-2.3-.9" fill="#06379c" fill-rule="evenodd"/><path d="M77,217.2H76l-.5-.3-.2-.1a4.35,4.35,0,0,1-.7-.4l-.5-.1a3.11,3.11,0,0,0-.4-.6l-.1-.2-.4-.6-.2-.2a1.47,1.47,0,0,0-.2-.4,2,2,0,0,0,.2-.7l-.2.2a1.88,1.88,0,0,1-1,.4h-.1l1.1,1.5.6.7.3.3.6.4.5.4h.1l.4.2.6.3.1.1.8-.1a4.89,4.89,0,0,1,1.3.1.54.54,0,0,1,.3.6,1,1,0,0,0,.4-.7,1.81,1.81,0,0,0-1.8-.8" fill="#06379c" fill-rule="evenodd"/><path d="M61.1,269.4h0c-.1,0-.1,0-.1-.1h0a16,16,0,0,1,20.8-8,15.81,15.81,0,0,1,8.1,8v.1h0a8.61,8.61,0,0,0-4.4-1,7.81,7.81,0,0,0-4.9,1.4h-.2a9.57,9.57,0,0,0-9.8,0h-.1a8.81,8.81,0,0,0-4.9-1.5,10,10,0,0,0-4.5,1.1Z" fill="#f10c1b" fill-rule="evenodd"/><path d="M76.33,269.47h0a2.77,2.77,0,0,0-.9-.1h-.6a.1.1,0,0,0-.1.1v12.7a1.32,1.32,0,0,1-1.3,1.3,1.29,1.29,0,0,1-1.3-.9.73.73,0,0,0-1-.4.72.72,0,0,0-.5.9,2.94,2.94,0,0,0,5.7-.9Z" fill="#f10c1b" fill-rule="evenodd"/><path d="M59.6,105.6H68v-28H60.3V95L58,92.9V79c0-8.1,1-12,1-12-2.6,0-4,2.5-4.3,3.2a4.32,4.32,0,0,0-3.5,2.7,9,9,0,0,0-.8,2.3c-3.1.7-3.4,6.2-3.2,7.2l-4.8-4.7H34v28h7.7v-17l3.7,3.6a3.69,3.69,0,0,0,.7,1.4l-1.5-1.3a7,7,0,0,0,1.2,5.2L44,96.1a6.17,6.17,0,0,0,2,5.1l-2.4-1.1c-.2,1.6,1.5,4,2.4,4.5l-2-.3a4.4,4.4,0,0,0,2,3.1s-3.4-.1-5-.1q-3.6,0-7.2.3a7.41,7.41,0,0,0,4.4,2l-2,1.4a8.2,8.2,0,0,0,3.1.3L38,112.9s4-1.5,5.7-1.4c1.3.1,7.6,2.5,11.8,2.5a13.91,13.91,0,0,0,6.5-1.9,9,9,0,0,1,2.7-1.1,3.23,3.23,0,0,1,2.2.3c.2-.6.6-2.3-1.8-2.7a1.39,1.39,0,0,0-1.1-1.1c-1.3-.2-6.9-.6-7.1-.6-.5,0-2.1-.3-.6-2.5a13.5,13.5,0,0,1,.9-1.1Zm-.2,2.1c1.8.1,3.1.3,4.4.4a1.22,1.22,0,0,1,.8.9,8.75,8.75,0,0,0-1.6-.2l-.1.6a11.27,11.27,0,0,1,1.8-.3s1.9,0,1.8,1.3c-.5-.4-1.6-.2-1.9-.2a10.21,10.21,0,0,0-2.9,1.1,18.67,18.67,0,0,1-3.2,1.5c.5-.5,1.9-2.1,1.9-2.1l-1.9-.7,1.5-1.3-2.4-1.3,1.8.3Zm-2.7-5c-.9,1-2,2.4-1.7,3.5.1.9,1.4,1.4,1.4,1.4L59,109l-1.7,1.5,2,.6-2.1,2.1a9.7,9.7,0,0,1-1.7.1c-4.3,0-10.2-2.5-11.7-2.6a10.72,10.72,0,0,0-4,1l1.2-1.3a15.14,15.14,0,0,1-3,.2l2-1.3a8.77,8.77,0,0,1-4.2-1.1s3.4-.3,8-.2c1.9,0,5,.2,5,.2-1.6-.7-3-1.5-3.6-3.1l3,.4c-1.2-.8-3.1-2.7-3.4-4.2l3.3,1.1c-.6-.6-2.6-2.6-3-4.8l2.6,1.6c-.7-.7-2.5-4.3-2.2-5.4l2.4,1.7c-1.2-1.4-2.5-5.3-1.6-6.8a6.2,6.2,0,0,0,2.4,3.9c-1.1-1.6-3.4-7.2-1.2-9.6.6,5.6,2.9,7.4,2.9,7.4-2-3.1-4.2-12.7,0-14.6-.8,6.1,1.1,9.5,1.1,9.5-1.3-5.7-1.2-13.7,3-14.4a18.17,18.17,0,0,0-.6,10.7c-.3-14,4.2-13.8,4.2-13.8A59.68,59.68,0,0,0,57.4,79V99.7a4.32,4.32,0,0,1-.7,3Z" fill="#1b5aa2" fill-rule="evenodd"/><path d="M59.4,107.7c1.8.1,3.1.3,4.4.4a1.22,1.22,0,0,1,.8.9,8.75,8.75,0,0,0-1.6-.2l-.1.6a11.27,11.27,0,0,1,1.8-.3s1.9,0,1.8,1.3c-.5-.4-1.6-.2-1.9-.2a10.21,10.21,0,0,0-2.9,1.1,18.67,18.67,0,0,1-3.2,1.5c.5-.5,1.9-2.1,1.9-2.1l-1.9-.7,1.5-1.3-2.4-1.3,1.8.3m-2.7-5.1c-.9,1-2,2.4-1.7,3.5.1.9,1.4,1.4,1.4,1.4l2.6,1.4-1.7,1.5,2,.6-2.1,2.1a9.7,9.7,0,0,1-1.7.1c-4.3,0-10.2-2.5-11.7-2.6a10.72,10.72,0,0,0-4,1l1.2-1.3a15.14,15.14,0,0,1-3,.2l2-1.3a8.77,8.77,0,0,1-4.2-1.1s3.4-.3,8-.2c1.9,0,5,.2,5,.2-1.6-.7-3-1.5-3.6-3.1l3,.4c-1.2-.8-3.1-2.7-3.4-4.2l3.3,1.1c-.6-.6-2.6-2.6-3-4.8l2.6,1.6c-.7-.7-2.5-4.3-2.2-5.4l2.4,1.7c-1.2-1.5-2.5-5.3-1.6-6.8a6.2,6.2,0,0,0,2.4,3.9c-1.1-1.6-3.4-7.2-1.2-9.6.6,5.6,2.9,7.4,2.9,7.4-2-3.1-4.2-12.7,0-14.6-.8,6.1,1.1,9.5,1.1,9.5-1.3-5.7-1.2-13.7,3-14.4a18.17,18.17,0,0,0-.6,10.7c-.3-14,4.2-13.8,4.2-13.8a59.68,59.68,0,0,0-.7,11.2V99.6a4.32,4.32,0,0,1-.7,3" fill="#fff" fill-rule="evenodd"/><path d="M109.2,275.4h-1.7V269h-2.3v-1.6h6.2V269h-2.3v6.4Z" fill="#070e15"/><path d="M115.4,271.1c-.2,0-.5-.1-.7-.1a1.22,1.22,0,0,0-1.3.9,2,2,0,0,0-.1.8v2.7h-1.6v-6h1.6v1.2a1.78,1.78,0,0,1,1.7-1.4h.4Z" fill="#070e15"/><path d="M120.5,270.4a2.5,2.5,0,0,1,.3,1.3v2.1a.27.27,0,0,0,.3.3h.2v1.3a.75.75,0,0,1-.5.1,1.42,1.42,0,0,1-1.5-1,2.1,2.1,0,0,1-1.8,1,1.9,1.9,0,0,1-1.3-.5,1.35,1.35,0,0,1-.5-1.2,1.66,1.66,0,0,1,.5-1.2,2.62,2.62,0,0,1,1.5-.6l1.1-.2a.37.37,0,0,0,.4-.4.76.76,0,0,0-.2-.5,1.42,1.42,0,0,0-.6-.2.8.8,0,0,0-.9.7l-1.6-.1a2.24,2.24,0,0,1,.8-1.5,2.79,2.79,0,0,1,1.8-.6A2.49,2.49,0,0,1,120.5,270.4Zm-1.3,2.2a.85.85,0,0,1-.6.2l-.6.2a1.63,1.63,0,0,0-.6.3.76.76,0,0,0-.2.4.52.52,0,0,0,.2.4.76.76,0,0,0,.5.2,1.09,1.09,0,0,0,.9-.4,1.53,1.53,0,0,0,.4-1Z" fill="#070e15"/><path d="M127.4,269.5l-2.3,6h-1.7l-2.2-6H123l1.3,3.8,1.4-3.8Z" fill="#070e15"/><path d="M129.3,272.9a1,1,0,0,0,.5.8,1.61,1.61,0,0,0,.9.3,1.43,1.43,0,0,0,1.1-.5l1.6.2a2.54,2.54,0,0,1-.9,1.3,3.1,3.1,0,0,1-1.7.5,3.29,3.29,0,0,1-2.2-.8,3,3,0,0,1-.8-2.3,2.79,2.79,0,0,1,.9-2.2,3.31,3.31,0,0,1,2-.9,2.58,2.58,0,0,1,2.1.9,3.29,3.29,0,0,1,.8,2.2v.5Zm2.6-1a1.22,1.22,0,0,0-1.3-1.1,1.14,1.14,0,0,0-.8.3,1.23,1.23,0,0,0-.4.8Z" fill="#070e15"/><path d="M136.2,275.4h-1.6v-7.9h1.6Z" fill="#070e15"/><path d="M138.9,272.9a1,1,0,0,0,.5.8,1.61,1.61,0,0,0,.9.3,1.43,1.43,0,0,0,1.1-.5l1.6.2a2.54,2.54,0,0,1-.9,1.3,3.1,3.1,0,0,1-1.7.5,3.29,3.29,0,0,1-2.2-.8,3,3,0,0,1-.8-2.3,2.79,2.79,0,0,1,.9-2.2,3.31,3.31,0,0,1,2-.9,2.58,2.58,0,0,1,2.1.9,3.29,3.29,0,0,1,.8,2.2v.5Zm2.6-1a1.22,1.22,0,0,0-1.3-1.1,1.14,1.14,0,0,0-.8.3,1.23,1.23,0,0,0-.4.8Z" fill="#070e15"/><path d="M147.9,271.1c-.2,0-.5-.1-.7-.1a1.22,1.22,0,0,0-1.3.9,2,2,0,0,0-.1.8v2.7h-1.6v-6h1.6v1.2a1.78,1.78,0,0,1,1.7-1.4h.4v1.9Z" fill="#070e15"/><path d="M152,275a2.17,2.17,0,0,1-1.4.5,2.85,2.85,0,0,1-2.4-1.2l1.1-.9a1.57,1.57,0,0,0,1.3.7c.3,0,.5-.1.5-.4s-.2-.4-.5-.5l-.9-.4a1.89,1.89,0,0,1-1.2-1.7,1.76,1.76,0,0,1,.6-1.3,2.27,2.27,0,0,1,3.3.5l-1,1a1.06,1.06,0,0,0-.9-.5c-.3,0-.4.1-.4.3a.54.54,0,0,0,.3.4l.9.4a2.09,2.09,0,0,1,1,.8,2,2,0,0,1,.3,1.1A2.28,2.28,0,0,1,152,275Z" fill="#070e15"/></svg>